<svg width="42" height="59" fill="none" xmlns="http://www.w3.org/2000/svg"><path d="M21.666.99a1.09 1.09 0 0 0-.795-.339c-.303 0-.594.123-.795.339-3.62 3.853-10.94 14.319-10.94 25.491 0 2.4.148 4.811.438 7.18C3.944 37.26.6 43.208.6 49.684c0 1.82.267 3.622.792 5.359.296.978 1.756.973 2.05 0 1.351-4.456 4.526-8.187 8.792-10.387.37.907.766 1.733 1.18 2.465.466.825 1.328 1.378 2.315 1.514-.041.363-.063.73-.063 1.1 0 3.697 4.338 8.578 4.523 8.784a1.104 1.104 0 0 0 1.623 0c.184-.206 4.524-5.087 4.524-8.784a9.64 9.64 0 0 0-.068-1.144c.895-.193 1.641-.728 2.06-1.468.415-.733.81-1.56 1.18-2.467 4.267 2.2 7.442 5.931 8.793 10.387.298.987 1.758.963 2.05 0a18.51 18.51 0 0 0 .792-5.359c0-6.476-3.344-12.424-8.975-16.022.29-2.37.44-4.782.44-7.18 0-5.5-1.688-11.274-5.015-17.16C25.977 6.37 23.298 2.727 21.666.99ZM2.793 51.096c-.04-.468-.06-.94-.059-1.412 0-5.454 2.652-10.49 7.165-13.747.402 2.45.953 4.756 1.622 6.78-3.782 1.872-6.822 4.81-8.728 8.379Zm21.41-1.36c0 1.974-1.888 4.812-3.203 6.489-1.314-1.675-3.2-4.51-3.2-6.49 0-.36.026-.717.074-1.066h6.254c.049.349.074.705.074 1.066Zm2.245-3.576c-.164.29-.521.478-.911.478h-9.33c-.39 0-.749-.188-.914-.48a19.868 19.868 0 0 1-1.123-2.366 18.8 18.8 0 0 1 6.7-1.217 18.8 18.8 0 0 1 6.703 1.217 19.89 19.89 0 0 1-1.125 2.368Zm12.561 3.524c0 .472-.02.943-.06 1.412-1.905-3.569-4.945-6.507-8.727-8.38.668-2.023 1.22-4.328 1.622-6.779 4.513 3.258 7.165 8.293 7.165 13.747Zm-8.535-23.203c0 4.955-.678 10.633-2.21 15.388a21.023 21.023 0 0 0-7.393-1.325c-2.563 0-5.045.447-7.393 1.325-1.532-4.754-2.209-10.433-2.209-15.388 0-5 1.503-10.27 4.469-15.675h10.266c2.966 5.405 4.47 10.676 4.47 15.675Zm-5.65-17.706h-7.905a47.961 47.961 0 0 1 3.952-5.517 47.92 47.92 0 0 1 3.953 5.517Z" fill="#fff"/></svg>