<svg width="97" height="81" fill="none" xmlns="http://www.w3.org/2000/svg"><path d="m77.138 17.613-13.75-13.75a1.291 1.291 0 0 0-.887-.363H31.25a3.762 3.762 0 0 0-3.75 3.75v7.563a26.216 26.216 0 0 0 0 52.374v7.563a3.762 3.762 0 0 0 3.75 3.75h42.5a3.762 3.762 0 0 0 3.75-3.75V18.5a1.291 1.291 0 0 0-.363-.887ZM63.75 7.763l9.488 9.487h-8.237A1.25 1.25 0 0 1 63.75 16V7.762ZM5 41a23.78 23.78 0 0 1 22.5-23.712v23.2L11.125 56.861A23.599 23.599 0 0 1 5.001 41Zm7.888 17.625L29.263 42.25h23.2a23.705 23.705 0 0 1-39.575 16.375ZM75.001 74.75A1.25 1.25 0 0 1 73.75 76h-42.5A1.25 1.25 0 0 1 30 74.75v-7.563A26.268 26.268 0 0 0 55 41a1.25 1.25 0 0 0-1.25-1.25H30V7.25A1.25 1.25 0 0 1 31.25 6h30v10A3.762 3.762 0 0 0 65 19.75h10v55Z" fill="#fff"/><path d="M33.75 9.75A1.25 1.25 0 0 0 32.5 11v25a1.25 1.25 0 0 0 1.25 1.25h25A1.25 1.25 0 0 0 60 36 26.28 26.28 0 0 0 33.75 9.75Zm1.25 25V12.288A23.772 23.772 0 0 1 57.462 34.75H35ZM61.25 51A11.25 11.25 0 1 0 72.5 62.25 11.268 11.268 0 0 0 61.25 51Zm0 20A8.75 8.75 0 1 1 70 62.25 8.76 8.76 0 0 1 61.25 71Z" fill="#fff"/><path d="m58.75 64.233-2.867-2.867-1.767 1.768 3.75 3.75a1.25 1.25 0 0 0 1.767 0l7.5-7.5-1.767-1.768-6.616 6.617ZM62.5 24.75h10v2.5h-10v-2.5Zm0 7.5h10v2.5h-10v-2.5Zm0 7.5h10v2.5h-10v-2.5Z" fill="#fff"/></svg>