<svg width="24" height="24" fill="none" xmlns="http://www.w3.org/2000/svg"><path d="M20.401 3.489A11.782 11.782 0 0 0 11.991 0C5.441 0 .102 5.337.096 11.889c0 2.099.549 4.14 1.585 5.948L0 24l6.306-1.653a11.9 11.9 0 0 0 5.685 1.447h.006c6.552 0 11.889-5.337 11.895-11.895A11.847 11.847 0 0 0 20.4 3.49h.002Zm-8.41 18.293a9.86 9.86 0 0 1-5.034-1.38l-.36-.216-3.741.98.999-3.649-.234-.377a9.84 9.84 0 0 1-1.51-5.257c0-5.439 4.435-9.876 9.886-9.876a9.84 9.84 0 0 1 6.99 2.897 9.837 9.837 0 0 1 2.892 6.99c-.006 5.458-4.442 9.888-9.888 9.888Zm5.422-7.402c-.295-.148-1.755-.867-2.029-.969-.273-.097-.473-.148-.668.149-.199.295-.769.969-.94 1.162-.171.2-.348.223-.645.075-.296-.15-1.254-.462-2.388-1.477-.885-.787-1.478-1.763-1.655-2.058-.17-.297-.016-.456.133-.604.13-.133.295-.348.444-.52.15-.17.199-.296.296-.494.098-.201.051-.372-.022-.521-.075-.148-.668-1.614-.918-2.205-.24-.583-.485-.502-.668-.51-.17-.01-.37-.01-.57-.01a1.094 1.094 0 0 0-.793.37c-.273.297-1.037 1.016-1.037 2.481 0 1.465 1.066 2.874 1.215 3.073.147.2 2.091 3.199 5.075 4.489.705.307 1.26.488 1.694.627.712.228 1.356.193 1.869.12.57-.087 1.756-.72 2.007-1.415.245-.696.245-1.29.17-1.415-.073-.126-.273-.199-.57-.348Z" fill="#282C37"/></svg>