<svg width="459" height="332" viewBox="0 0 459 332" fill="none" xmlns="http://www.w3.org/2000/svg">
<path fill-rule="evenodd" clip-rule="evenodd" d="M99.2357 302.981C99.2357 307.174 101.475 311.051 105.11 313.151C113.382 317.931 128.282 326.53 135.669 330.796C136.579 331.317 137.696 331.317 138.606 330.796C139.517 330.275 140.075 329.298 140.075 328.256C140.075 319.789 140.075 302.798 140.075 293.325C140.075 289.125 137.835 285.248 134.2 283.148C125.928 278.375 111.031 269.769 103.641 265.503C102.732 264.982 101.613 264.982 100.704 265.503C99.7952 266.032 99.2357 267.001 99.2357 268.051L99.2357 302.981Z" fill="#C8D8EC"/>
<path fill-rule="evenodd" clip-rule="evenodd" d="M49.6178 274.347C49.6178 278.547 51.8574 282.424 55.4921 284.524C63.7566 289.29 78.6275 297.881 86.0108 302.14C86.9191 302.669 88.0389 302.669 88.9479 302.14C89.8562 301.619 90.4165 300.649 90.4165 299.599C90.4165 291.133 90.4165 274.141 90.4165 264.669C90.4165 260.469 88.177 256.592 84.5415 254.492C76.2778 249.726 61.4069 241.135 54.0236 236.876C53.1153 236.355 51.9955 236.355 51.0864 236.876C50.1781 237.397 49.6178 238.367 49.6178 239.417C49.6178 247.883 49.6178 264.867 49.6178 274.347Z" fill="#C8D8EC"/>
<path fill-rule="evenodd" clip-rule="evenodd" d="M99.2357 246.027C99.2357 250.22 101.475 254.097 105.11 256.197C113.382 260.978 128.282 269.576 135.669 273.842C136.579 274.364 137.696 274.364 138.606 273.842C139.517 273.314 140.075 272.344 140.075 271.294C140.075 262.769 140.075 245.587 140.075 236.041C140.075 231.841 137.835 227.964 134.2 225.864C125.926 221.091 111.031 212.492 103.641 208.226C102.732 207.705 101.613 207.705 100.704 208.226C99.7952 208.755 99.2357 209.724 99.2357 210.774C99.2357 219.299 99.2357 236.482 99.2357 246.027Z" fill="#C8D8EC"/>
<path fill-rule="evenodd" clip-rule="evenodd" d="M5.70576e-06 245.697C3.607e-06 249.897 2.23959 253.774 5.87433 255.874C14.1417 260.647 29.0236 269.238 36.4091 273.497C37.3181 274.026 38.4379 274.026 39.3462 273.497C40.2553 272.976 40.8148 272.007 40.8148 270.957C40.8148 262.49 40.8148 245.506 40.8148 236.027C40.8148 231.834 38.576 227.957 34.9405 225.856C26.6731 221.084 11.792 212.492 4.40577 208.226C3.49745 207.705 2.37766 207.705 1.46861 208.226C0.560288 208.755 2.3681e-05 209.724 2.31563e-05 210.774C1.89258e-05 219.241 1.0439e-05 236.225 5.70576e-06 245.697Z" fill="#C8D8EC"/>
<path fill-rule="evenodd" clip-rule="evenodd" d="M49.6178 217.369C49.6178 221.569 51.8574 225.446 55.4929 227.546C63.7566 232.319 78.6275 240.903 86.0108 245.161C86.9191 245.69 88.0389 245.69 88.9479 245.161C89.8563 244.64 90.4165 243.671 90.4165 242.621C90.4165 234.096 90.4165 216.913 90.4165 207.368C90.4165 203.167 88.1762 199.29 84.5407 197.19C76.2763 192.425 61.4062 183.841 54.0236 179.582C53.1145 179.053 51.9955 179.053 51.0864 179.582C50.1781 180.103 49.6179 181.073 49.6179 182.123C49.6178 190.648 49.6178 207.823 49.6178 217.369Z" fill="#C8D8EC"/>
<path fill-rule="evenodd" clip-rule="evenodd" d="M189.726 146.881C189.726 142.681 187.487 138.804 183.851 136.704C175.578 131.931 160.68 123.332 153.293 119.066C152.383 118.537 151.267 118.537 150.356 119.066C149.446 119.587 148.887 120.557 148.887 121.607C148.887 130.198 148.887 147.586 148.887 157.205C148.887 161.404 151.127 165.282 154.762 167.381C163.034 172.158 177.931 180.758 185.321 185.025C186.23 185.549 187.35 185.549 188.258 185.025C189.167 184.5 189.726 183.53 189.726 182.481C189.726 173.888 189.726 156.5 189.726 146.881Z" fill="#C8D8EC"/>
<path fill-rule="evenodd" clip-rule="evenodd" d="M0 188.711C-2.09876e-06 192.911 2.23957 196.788 5.87504 198.888C14.1424 203.661 29.0236 212.252 36.4091 216.519C37.3181 217.04 38.4379 217.04 39.3462 216.519C40.2553 215.99 40.8148 215.021 40.8148 213.971C40.8148 205.446 40.8148 188.27 40.8148 178.725C40.8148 174.532 38.5753 170.651 34.9398 168.552C26.6717 163.78 11.7913 155.191 4.40577 150.929C3.49671 150.404 2.37765 150.404 1.4686 150.929C0.560283 151.454 1.81327e-05 152.423 1.76084e-05 153.472C1.33484e-05 161.997 4.76625e-06 179.173 0 188.711Z" fill="#C8D8EC"/>
<path fill-rule="evenodd" clip-rule="evenodd" d="M49.6178 160.072C49.6178 164.27 51.8582 168.149 55.4936 170.247C63.7581 175.016 78.6282 183.6 86.0108 187.859C86.9198 188.388 88.0389 188.388 88.9479 187.859C89.8563 187.338 90.4165 186.369 90.4165 185.319C90.4165 176.727 90.4165 159.333 90.4165 149.712C90.4165 145.515 88.177 141.636 84.5422 139.538C76.2785 134.766 61.4069 126.181 54.0236 121.918C53.1153 121.393 51.9955 121.393 51.0864 121.918C50.1781 122.443 49.6179 123.413 49.6179 124.462C49.6178 133.056 49.6178 150.45 49.6178 160.072Z" fill="#C8D8EC"/>
<path fill-rule="evenodd" clip-rule="evenodd" d="M154.776 283.162C151.141 285.254 148.902 289.139 148.902 293.332C148.902 302.811 148.902 319.796 148.902 328.262C148.902 329.305 149.46 330.281 150.37 330.803C151.281 331.324 152.397 331.324 153.307 330.803C160.694 326.536 175.578 317.945 183.839 313.172C187.474 311.072 189.714 307.195 189.714 302.995C189.714 293.523 189.714 276.538 189.714 268.072C189.714 267.022 189.155 266.053 188.245 265.531C187.342 265.003 186.218 265.003 185.308 265.531C177.928 269.79 163.044 278.389 154.776 283.162Z" fill="#A6B7CA"/>
<path fill-rule="evenodd" clip-rule="evenodd" d="M204.394 254.523C200.759 256.616 198.52 260.5 198.52 264.693C198.52 274.173 198.52 291.157 198.52 299.623C198.52 300.673 199.085 301.643 199.988 302.164C200.899 302.685 202.022 302.685 202.925 302.164C210.312 297.905 225.182 289.314 233.443 284.548C237.085 282.448 239.317 278.571 239.317 274.371C239.317 264.899 239.317 247.907 239.317 239.448C239.317 238.391 238.759 237.429 237.848 236.9C236.945 236.379 235.822 236.379 234.911 236.9C227.532 241.159 212.662 249.75 204.394 254.523Z" fill="#A6B7CA"/>
<path fill-rule="evenodd" clip-rule="evenodd" d="M154.776 225.881C151.141 227.981 148.902 231.858 148.902 236.058C148.902 245.596 148.902 262.771 148.902 271.297C148.902 272.347 149.46 273.316 150.37 273.837C151.281 274.366 152.397 274.366 153.308 273.837C160.695 269.578 175.579 260.987 183.839 256.207C187.474 254.114 189.714 250.237 189.714 246.037C189.714 236.491 189.714 219.324 189.714 210.798C189.714 209.748 189.156 208.779 188.245 208.25C187.342 207.729 186.218 207.729 185.308 208.25C177.928 212.517 163.044 221.108 154.776 225.881Z" fill="#A6B7CA"/>
<path fill-rule="evenodd" clip-rule="evenodd" d="M288.979 210.774C288.979 209.724 288.421 208.755 287.51 208.226C286.607 207.705 285.483 207.705 284.573 208.226C277.186 212.492 262.287 221.098 254.012 225.871C250.377 227.971 248.137 231.848 248.137 236.048C248.137 245.521 248.137 262.505 248.137 270.971C248.137 272.021 248.703 272.991 249.606 273.512C250.516 274.041 251.64 274.041 252.543 273.512C259.937 269.246 274.836 260.647 283.104 255.874C286.739 253.774 288.979 249.897 288.979 245.697C288.979 236.225 288.979 219.241 288.979 210.774Z" fill="#A6B7CA"/>
<path fill-rule="evenodd" clip-rule="evenodd" d="M204.394 197.222C200.759 199.322 198.52 203.199 198.52 207.399L198.52 242.638C198.52 243.688 199.085 244.657 199.988 245.178C200.899 245.707 202.022 245.707 202.925 245.178C210.312 240.919 225.182 232.336 233.443 227.563C237.085 225.463 239.317 221.586 239.317 217.385L239.317 182.147C239.317 181.097 238.759 180.127 237.848 179.606C236.945 179.077 235.822 179.077 234.911 179.606C227.532 183.865 212.662 192.456 204.394 197.222Z" fill="#A6B7CA"/>
<path fill-rule="evenodd" clip-rule="evenodd" d="M134.186 167.395C137.821 165.296 140.061 161.418 140.061 157.219C140.061 147.6 140.061 130.197 140.061 121.599C140.061 120.549 139.502 119.579 138.592 119.058C137.681 118.529 136.565 118.529 135.655 119.058C128.268 123.324 113.384 131.915 105.123 136.688C101.488 138.788 99.2487 142.665 99.2487 146.858C99.2487 156.485 99.2487 173.885 99.2487 182.48C99.2487 183.53 99.8067 184.5 100.717 185.025C101.62 185.549 102.744 185.549 103.654 185.025C111.034 180.76 125.918 172.168 134.186 167.395Z" fill="#A6B7CA"/>
<path fill-rule="evenodd" clip-rule="evenodd" d="M254.012 168.573C250.377 170.672 248.137 174.553 248.137 178.746C248.137 188.292 248.137 205.46 248.137 213.985C248.137 215.035 248.703 216.004 249.606 216.533C250.517 217.054 251.64 217.054 252.543 216.533C259.938 212.267 274.836 203.661 283.104 198.888C286.739 196.788 288.979 192.911 288.979 188.711C288.979 179.172 288.979 161.998 288.979 153.474C288.979 152.425 288.421 151.455 287.51 150.931C286.607 150.405 285.484 150.405 284.573 150.931C277.186 155.197 262.287 163.797 254.012 168.573Z" fill="#A6B7CA"/>
<path fill-rule="evenodd" clip-rule="evenodd" d="M204.394 139.561C200.759 141.659 198.52 145.538 198.52 149.736C198.52 159.359 198.52 176.758 198.52 185.357C198.52 186.407 199.085 187.376 199.988 187.898C200.899 188.426 202.022 188.426 202.925 187.898C210.312 183.639 225.182 175.047 233.443 170.279C237.085 168.18 239.317 164.302 239.317 160.104C239.317 150.481 239.317 133.08 239.317 124.485C239.317 123.436 238.759 122.466 237.848 121.941C236.945 121.416 235.822 121.416 234.911 121.941C227.532 126.204 212.662 134.79 204.394 139.561Z" fill="#A6B7CA"/>
<path fill-rule="evenodd" clip-rule="evenodd" d="M207.284 80.5628C206.373 81.0878 205.815 82.0571 205.815 83.1064C205.815 84.1557 206.373 85.1257 207.284 85.65C214.671 89.9155 237.823 103.287 237.823 103.287L237.837 62.9193C237.837 62.9193 214.671 76.2958 207.284 80.5628Z" fill="#A6B7CA"/>
<path fill-rule="evenodd" clip-rule="evenodd" d="M0 131.429C-2.09766e-06 135.627 2.24033 139.506 5.8758 141.604C14.1439 146.376 29.0243 154.965 36.4098 159.228C37.3181 159.753 38.4379 159.753 39.347 159.228C40.2553 158.704 40.8148 157.734 40.8148 156.684C40.8148 148.09 40.8148 130.693 40.8148 121.071C40.8148 116.874 38.576 112.996 34.9405 110.897C26.6731 106.123 11.792 97.5313 4.40576 93.2673C3.49745 92.7423 2.37765 92.7423 1.4686 93.2673C0.560283 93.7923 1.83224e-05 94.7616 1.77981e-05 95.8109C1.35029e-05 104.406 4.80882e-06 121.806 0 131.429Z" fill="#57A3FF"/>
<path fill-rule="evenodd" clip-rule="evenodd" d="M8.81221 80.5526C7.90389 81.0769 7.34363 82.0469 7.34363 83.0962C7.34363 84.1455 7.90389 85.1147 8.81221 85.6398C16.1955 89.9023 31.0671 98.4884 39.3308 103.259C42.9656 105.358 47.444 105.358 51.0795 103.259C59.3469 98.4862 74.228 89.8943 81.6142 85.6302C82.5226 85.1052 83.0828 84.136 83.0828 83.0859C83.0828 82.0366 82.5226 81.0674 81.6142 80.5423C74.2309 76.2805 59.3601 67.6944 51.0956 62.923C47.4609 60.8244 42.9824 60.8244 39.347 62.923C31.0796 67.6959 16.1984 76.2878 8.81221 80.5526Z" fill="#9FCDFF"/>
<path fill-rule="evenodd" clip-rule="evenodd" d="M180.866 197.739C181.774 197.214 182.335 196.245 182.335 195.196C182.335 194.147 181.774 193.177 180.866 192.652C173.478 188.386 158.587 179.79 150.319 175.015C146.684 172.917 142.205 172.917 138.57 175.015C130.302 179.789 115.418 188.381 108.038 192.645C107.128 193.169 106.57 194.139 106.57 195.189C106.57 196.238 107.128 197.208 108.038 197.732C115.425 201.998 130.309 210.594 138.585 215.368C142.22 217.467 146.699 217.467 150.333 215.368C158.602 210.595 173.48 202.004 180.866 197.739Z" fill="white"/>
<path fill-rule="evenodd" clip-rule="evenodd" d="M283.104 141.608L248.137 121.089C248.137 121.089 248.137 148.112 248.137 156.708C248.137 157.758 248.703 158.727 249.606 159.252C250.516 159.776 251.64 159.776 252.543 159.252C259.937 154.985 283.104 141.608 283.104 141.608Z" fill="white"/>
<path fill-rule="evenodd" clip-rule="evenodd" d="M157.666 109.217C156.762 109.741 156.197 110.711 156.197 111.76C156.197 112.81 156.762 113.779 157.666 114.304C165.06 118.57 179.944 127.166 188.212 131.94C191.847 134.039 196.326 134.039 199.961 131.94C208.229 127.169 223.098 118.583 230.478 114.321C231.389 113.796 231.947 112.827 231.947 111.777C231.947 110.727 231.389 109.758 230.478 109.233C223.091 104.968 208.207 96.372 199.939 91.5969C196.297 89.4983 191.825 89.4983 188.19 91.5969C179.922 96.3683 165.053 104.954 157.666 109.217Z" fill="white"/>
<path fill-rule="evenodd" clip-rule="evenodd" d="M58.43 109.202C57.521 109.728 56.9614 110.697 56.9614 111.746C56.9614 112.795 57.521 113.765 58.43 114.29C65.8177 118.555 80.7069 127.152 88.9765 131.926C92.612 134.025 97.0904 134.025 100.725 131.926C108.993 127.153 123.874 118.561 131.258 114.297C132.168 113.772 132.726 112.803 132.726 111.753C132.726 110.704 132.168 109.734 131.258 109.21C123.872 104.944 108.983 96.348 100.713 91.5729C97.0779 89.4743 92.5995 89.4743 88.9648 91.5729C80.6974 96.3465 65.8155 104.938 58.43 109.202Z" fill="white"/>
<path fill-rule="evenodd" clip-rule="evenodd" d="M108.048 80.5424C107.139 81.0674 106.579 82.0367 106.579 83.086C106.579 84.136 107.139 85.1053 108.048 85.6303C115.436 89.8958 130.324 98.4914 138.592 103.267C142.227 105.365 146.706 105.365 150.341 103.267C158.609 98.4951 173.478 89.909 180.865 85.6465C181.769 85.1222 182.334 84.1522 182.334 83.1029C182.334 82.0536 181.769 81.0843 180.865 80.5593C173.471 76.2938 158.587 67.6974 150.311 62.9231C146.677 60.8245 142.198 60.8245 138.563 62.9231C130.302 67.6945 115.43 76.2806 108.048 80.5424Z" fill="white"/>
<path fill-rule="evenodd" clip-rule="evenodd" d="M157.666 51.9166C156.762 52.4409 156.197 53.4109 156.197 54.4602C156.197 55.5095 156.762 56.4795 157.666 57.0038C165.06 61.2693 179.944 69.8657 188.22 74.6401C191.854 76.7387 196.326 76.7387 199.968 74.6401C208.236 69.8642 223.135 61.2635 230.522 56.9965C231.433 56.4722 231.991 55.5022 231.991 54.4529C231.991 53.4036 231.433 52.4343 230.522 51.9093C223.135 47.6438 208.244 39.0482 199.976 34.2731C196.341 32.1745 191.862 32.1745 188.227 34.2731C179.959 39.0496 165.06 47.6496 157.666 51.9166Z" fill="white"/>
<path fill-rule="evenodd" clip-rule="evenodd" d="M58.43 51.9173C57.5217 52.4416 56.9614 53.4116 56.9614 54.4609C56.9614 55.5102 57.5217 56.4802 58.43 57.0045C65.8133 61.267 80.6849 69.8531 88.9486 74.6238C92.5834 76.7232 97.0618 76.7232 100.697 74.6238C108.961 69.8531 123.833 61.2671 131.212 57.0045C132.123 56.4802 132.681 55.5102 132.681 54.4609C132.681 53.4116 132.123 52.4416 131.212 51.9173C123.833 47.6547 108.961 39.0687 100.697 34.2972C97.0618 32.1986 92.5834 32.1986 88.9486 34.2972C80.6849 39.0687 65.8133 47.6547 58.43 51.9173Z" fill="white"/>
<path fill-rule="evenodd" clip-rule="evenodd" d="M108.048 23.2668C107.139 23.7918 106.579 24.7611 106.579 25.8111C106.579 26.8604 107.139 27.8297 108.048 28.3547C115.43 32.6165 130.302 41.2026 138.563 45.974C142.198 48.0726 146.677 48.0726 150.311 45.974C158.587 41.1974 173.486 32.5975 180.873 28.3305C181.783 27.8062 182.341 26.8362 182.341 25.7869C182.341 24.7376 181.783 23.7676 180.873 23.2433C173.493 18.9807 158.616 10.3946 150.356 5.62394C146.721 3.5246 142.242 3.5246 138.607 5.62394C130.331 10.3998 115.438 18.9998 108.048 23.2668Z" fill="white"/>
<path fill-rule="evenodd" clip-rule="evenodd" d="M338.458 56.4931C334.38 58.8474 331.868 63.1984 331.868 67.9086C331.868 78.6998 331.868 98.2227 331.868 107.869C331.868 109.047 332.494 110.134 333.515 110.719C334.537 111.312 335.789 111.312 336.81 110.719C345.097 105.933 361.794 96.2952 371.062 90.9408C375.139 88.5849 377.652 84.2354 377.652 79.5318C377.652 68.7324 377.652 49.2128 377.652 39.5699C377.652 38.392 377.026 37.3046 376.004 36.7156C374.991 36.1274 373.731 36.1274 372.709 36.7156C364.431 41.4999 347.733 51.1387 338.458 56.4931Z" fill="#30B01E"/>
<path fill-rule="evenodd" clip-rule="evenodd" d="M276.162 79.5049C276.162 84.2168 278.675 88.5662 282.753 90.9221C292.034 96.2765 308.747 105.923 317.034 110.709C318.056 111.302 319.308 111.302 320.329 110.709C321.351 110.124 321.977 109.037 321.977 107.859C321.977 98.2207 321.977 78.7142 321.977 67.923C321.977 63.2128 319.465 58.8617 315.387 56.5074C306.107 51.1489 289.395 41.5011 281.105 36.7143C280.085 36.1261 278.829 36.1261 277.81 36.7143C276.79 37.3032 276.162 38.3906 276.162 39.5677C276.162 49.2073 276.162 68.7138 276.162 79.5049Z" fill="#47CF34"/>
<path fill-rule="evenodd" clip-rule="evenodd" d="M286.07 22.4512C285.051 23.0402 284.422 24.1276 284.422 25.3047C284.422 26.4819 285.051 27.5701 286.069 28.1582C294.358 32.9442 311.063 42.5871 320.338 47.944C324.416 50.2983 329.441 50.2983 333.518 47.944C342.794 42.5888 359.491 32.9501 367.77 28.1665C368.792 27.5784 369.418 26.4902 369.418 25.313C369.418 24.1359 368.792 23.0477 367.77 22.4595C359.483 17.6743 342.786 8.03065 333.502 2.6746C329.424 0.320305 324.4 0.3203 320.322 2.67458C311.047 8.02897 294.356 17.6677 286.07 22.4512Z" fill="#77F565"/>
<path fill-rule="evenodd" clip-rule="evenodd" d="M435.106 136.528C432.678 137.93 431.181 140.522 431.181 143.327C431.181 149.755 431.181 161.383 431.181 167.128C431.181 167.83 431.554 168.478 432.162 168.826C432.771 169.179 433.516 169.179 434.125 168.826C439.061 165.975 449.006 160.235 454.526 157.046C456.954 155.642 458.451 153.052 458.451 150.25C458.451 143.818 458.451 132.192 458.451 126.448C458.451 125.747 458.078 125.099 457.47 124.748C456.866 124.398 456.115 124.398 455.507 124.748C450.576 127.598 440.631 133.339 435.106 136.528Z" fill="#287EE7"/>
<path fill-rule="evenodd" clip-rule="evenodd" d="M398.002 150.234C398.002 153.041 399.498 155.631 401.928 157.035C407.456 160.224 417.41 165.969 422.346 168.82C422.954 169.173 423.7 169.173 424.309 168.82C424.917 168.471 425.29 167.824 425.29 167.122C425.29 161.382 425.29 149.763 425.29 143.336C425.29 140.53 423.794 137.939 421.365 136.537C415.837 133.345 405.884 127.599 400.946 124.747C400.338 124.397 399.59 124.397 398.983 124.747C398.376 125.098 398.002 125.746 398.002 126.447C398.002 132.189 398.002 143.807 398.002 150.234Z" fill="#57A3FF"/>
<path fill-rule="evenodd" clip-rule="evenodd" d="M403.903 116.252C403.296 116.603 402.922 117.251 402.922 117.952C402.922 118.653 403.296 119.301 403.903 119.651C408.84 122.502 418.789 128.245 424.314 131.436C426.743 132.838 429.736 132.838 432.164 131.436C437.689 128.246 447.634 122.505 452.565 119.656C453.174 119.306 453.546 118.658 453.546 117.957C453.546 117.256 453.174 116.607 452.565 116.257C447.629 113.407 437.684 107.663 432.155 104.473C429.726 103.071 426.733 103.071 424.304 104.473C418.78 107.662 408.838 113.403 403.903 116.252Z" fill="#9FCDFF"/>
</svg>
