<svg width="237" height="254" fill="none" xmlns="http://www.w3.org/2000/svg"><g opacity=".5" fill-rule="evenodd" clip-rule="evenodd"><path d="M157.05 72.4c5.38 3.018 8.695 8.598 8.695 14.639v51.245a4.185 4.185 0 0 1-2.174 3.655c-1.348.761-3 .761-4.347 0-10.935-6.137-32.967-18.497-45.195-25.364-5.38-3.021-8.696-8.599-8.696-14.631V50.697c0-1.51.826-2.905 2.174-3.66a4.46 4.46 0 0 1 4.348 0c10.924 6.135 32.956 18.496 45.195 25.362Z" fill="#287EE7"/><path d="M237 101.918a16.903 16.903 0 0 1-8.468 14.644 160745.43 160745.43 0 0 0-44.045 25.377 4.21 4.21 0 0 1-4.233 0 4.205 4.205 0 0 1-2.117-3.655v-51.22a16.9 16.9 0 0 1 8.467-14.642l44.046-25.386a4.242 4.242 0 0 1 4.233 0 4.225 4.225 0 0 1 2.117 3.66v51.222Z" fill="#57A3FF"/><path d="M224.025 28.035a4.294 4.294 0 0 1 2.132 3.714 4.292 4.292 0 0 1-2.132 3.713c-10.725 6.23-32.34 18.778-44.342 25.75a16.97 16.97 0 0 1-17.054 0c-12.002-6.97-33.608-19.513-44.32-25.739a4.286 4.286 0 0 1-2.132-3.713c0-1.532.81-2.948 2.132-3.714 10.723-6.227 32.328-18.778 44.341-25.748a16.97 16.97 0 0 1 17.054 0c12.002 6.968 33.6 19.512 44.321 25.737Z" fill="#9FCDFF"/><path d="M36.505 204.458c3.798 2.132 6.139 6.07 6.139 10.334v36.173a2.957 2.957 0 0 1-1.535 2.581 3.13 3.13 0 0 1-3.069 0c-7.718-4.333-23.27-13.057-31.902-17.904C2.34 233.509 0 229.572 0 225.314v-36.175c0-1.066.583-2.051 1.534-2.584a3.15 3.15 0 0 1 3.07 0c7.71 4.331 23.262 13.056 31.901 17.903Z" fill="#30B01E"/><path d="M92.941 225.295c0 4.266-2.278 8.204-5.977 10.337a89185.94 89185.94 0 0 0-31.09 17.914 2.973 2.973 0 0 1-2.989 0 2.97 2.97 0 0 1-1.494-2.581V214.81c0-4.265 2.279-8.204 5.977-10.335l31.09-17.92a2.997 2.997 0 0 1 2.99 0 2.982 2.982 0 0 1 1.493 2.584v36.156Z" fill="#47CF34"/><path d="M83.782 173.143a3.031 3.031 0 0 1 1.505 2.621 3.03 3.03 0 0 1-1.505 2.621c-7.57 4.397-22.828 13.255-31.3 18.176a11.978 11.978 0 0 1-12.039 0c-8.472-4.919-23.723-13.774-31.284-18.168a3.025 3.025 0 0 1-1.505-2.621c0-1.082.572-2.081 1.505-2.622 7.569-4.396 22.82-13.255 31.3-18.175a11.978 11.978 0 0 1 12.038 0l31.285 18.168Z" fill="#77F565"/></g></svg>