<svg width="27" height="29" fill="none" xmlns="http://www.w3.org/2000/svg"><path fill-rule="evenodd" clip-rule="evenodd" d="M16.66 15.058c-1.076.6-1.739 1.71-1.739 2.912v10.19c0 .3.165.577.435.727.27.15.6.15.869 0l9.036-5.044c1.076-.6 1.739-1.71 1.739-2.91v-10.19c0-.3-.165-.578-.435-.728a.896.896 0 0 0-.869 0l-9.036 5.043Z" fill="#287EE7"/><path fill-rule="evenodd" clip-rule="evenodd" d="M0 20.928c0 1.202.662 2.311 1.738 2.912l9.038 5.047c.27.15.6.15.869 0a.832.832 0 0 0 .434-.727V17.974c0-1.2-.663-2.31-1.738-2.911l-9.038-5.048a.895.895 0 0 0-.869 0 .836.836 0 0 0-.434.728v10.185Z" fill="#57A3FF"/><path fill-rule="evenodd" clip-rule="evenodd" d="M2.572 5.932a.913.913 0 0 0-.44.786c0 .324.168.624.44.786l9.168 5.449a3.439 3.439 0 0 0 3.525 0l9.163-5.447a.911.911 0 0 0 .44-.785.911.911 0 0 0-.44-.786L15.26.486a3.439 3.439 0 0 0-3.526 0c-2.48 1.475-6.944 4.13-9.162 5.446Z" fill="#9FCDFF"/></svg>