<svg width="23" height="25" fill="none" xmlns="http://www.w3.org/2000/svg"><path fill-rule="evenodd" clip-rule="evenodd" d="M14.191 12.981a2.886 2.886 0 0 0-1.48 2.51v8.785c0 .259.14.498.37.626.23.13.51.13.74 0 1.863-1.052 5.615-3.17 7.698-4.348a2.887 2.887 0 0 0 1.48-2.508V9.261a.721.721 0 0 0-.37-.627.755.755 0 0 0-.74 0l-7.697 4.347Z" fill="#6CA7EF"/><path fill-rule="evenodd" clip-rule="evenodd" d="M0 18.042c0 1.036.564 1.992 1.48 2.51l7.7 4.35c.229.13.51.13.74 0a.719.719 0 0 0 .37-.626v-8.78a2.888 2.888 0 0 0-1.48-2.51l-7.7-4.352a.754.754 0 0 0-.74 0A.722.722 0 0 0 0 9.26v8.78Z" fill="#A5CBF9"/><path fill-rule="evenodd" clip-rule="evenodd" d="M2.191 5.114a.79.79 0 0 0-.375.678c0 .28.143.537.375.677l7.81 4.697a2.9 2.9 0 0 0 3.003 0l7.805-4.695a.788.788 0 0 0 .375-.677.788.788 0 0 0-.375-.678L13 .42a2.9 2.9 0 0 0-3.003 0L2.19 5.114Z" fill="#C2DFFF"/></svg>